<?xml version="1.0" encoding="UTF-8" standalone="no"?>
<!DOCTYPE svg PUBLIC "-//W3C//DTD SVG 1.1//EN" "http://www.w3.org/Graphics/SVG/1.1/DTD/svg11.dtd">
<svg width="100%" height="100%" viewBox="0 0 1024 1024" version="1.1" xmlns="http://www.w3.org/2000/svg" xmlns:xlink="http://www.w3.org/1999/xlink" xml:space="preserve" xmlns:serif="http://www.serif.com/" style="fill-rule:evenodd;clip-rule:evenodd;stroke-linejoin:round;stroke-miterlimit:2;">
    <path id="Key" d="M140,0L884,0C961.268,0 1024,62.732 1024,140L1024,884C1024,961.268 961.268,1024 884,1024L140,1024C62.732,1024 0,961.268 0,884L0,140C0,62.732 62.732,0 140,0Z" style="fill:rgb(38,38,38);fill-rule:nonzero;"/>
    <clipPath id="_clip1">
        <path id="Key1" serif:id="Key" d="M140,0L884,0C961.268,0 1024,62.732 1024,140L1024,884C1024,961.268 961.268,1024 884,1024L140,1024C62.732,1024 0,961.268 0,884L0,140C0,62.732 62.732,0 140,0Z" clip-rule="nonzero"/>
    </clipPath>
    <g clip-path="url(#_clip1)">
        <path id="Top" d="M206.844,0L817.156,0C880.54,0 932,51.46 932,114.844L932,725.156C932,788.54 880.54,840 817.156,840L206.844,840C143.46,840 92,788.54 92,725.156L92,114.844C92,51.46 143.46,0 206.844,0Z" style="fill:rgb(48,48,48);fill-rule:nonzero;"/>
    </g>
    <g id="firefox" transform="matrix(8.37909,0,0,8.37909,512,420)">
        <g transform="matrix(1,0,0,1,-43.7093,-40.9835)">
            <path id="path980" d="M79.616,26.827C77.932,22.775 74.516,18.4 71.841,17.017C73.749,20.712 75.073,24.68 75.766,28.781L75.773,28.846C71.391,17.921 63.96,13.516 57.891,3.924C57.584,3.439 57.277,2.953 56.978,2.44C56.807,2.147 56.67,1.883 56.551,1.64C56.299,1.152 56.105,0.637 55.973,0.105C55.973,0.054 55.935,0.011 55.885,0.005C55.861,-0.002 55.836,-0.002 55.812,0.005C55.807,0.005 55.799,0.014 55.793,0.016C55.787,0.018 55.774,0.027 55.765,0.031L55.78,0.005C46.045,5.705 42.742,16.257 42.438,21.535C38.551,21.802 34.833,23.235 31.772,25.646C31.453,25.375 31.119,25.122 30.772,24.888C29.889,21.797 29.851,18.525 30.663,15.415C27.088,17.147 23.911,19.602 21.334,22.625L21.316,22.625C19.78,20.678 19.888,14.258 19.976,12.917C19.522,13.1 19.088,13.33 18.682,13.604C17.326,14.572 16.058,15.658 14.894,16.849C13.567,18.194 12.355,19.648 11.271,21.196L11.271,21.202L11.271,21.195C8.779,24.727 7.012,28.719 6.071,32.938L6.019,33.194C5.946,33.535 5.683,35.243 5.638,35.614C5.638,35.643 5.632,35.67 5.629,35.699C5.29,37.462 5.08,39.248 5,41.042L5,41.242C5.019,62.492 22.509,79.967 43.759,79.967C62.545,79.967 78.761,66.309 81.954,47.796C82.019,47.296 82.072,46.801 82.13,46.296C82.928,39.699 82.064,33.005 79.616,26.827ZM34.946,57.165C35.127,57.252 35.297,57.346 35.483,57.429L35.51,57.446C35.322,57.356 35.134,57.262 34.946,57.165ZM75.776,28.855L75.776,28.818L75.783,28.859L75.776,28.855Z" style="fill:url(#_Linear2);fill-rule:nonzero;"/>
            <path id="path982" d="M79.616,26.827C77.932,22.775 74.516,18.4 71.841,17.017C73.749,20.712 75.073,24.68 75.766,28.781L75.766,28.818L75.773,28.859C78.759,37.404 78.327,46.782 74.567,55.017C70.125,64.548 59.373,74.317 42.543,73.842C24.358,73.327 8.343,59.833 5.349,42.159C4.804,39.372 5.349,37.959 5.623,35.694C5.249,37.453 5.041,39.244 5,41.042L5,41.242C5.019,62.492 22.509,79.967 43.759,79.967C62.545,79.967 78.761,66.309 81.954,47.796C82.019,47.296 82.072,46.801 82.13,46.296C82.928,39.699 82.064,33.005 79.616,26.827Z" style="fill:url(#_Radial3);fill-rule:nonzero;"/>
            <path id="path984" d="M79.616,26.827C77.932,22.775 74.516,18.4 71.841,17.017C73.749,20.712 75.073,24.68 75.766,28.781L75.766,28.818L75.773,28.859C78.759,37.404 78.327,46.782 74.567,55.017C70.125,64.548 59.373,74.317 42.543,73.842C24.358,73.327 8.343,59.833 5.349,42.159C4.804,39.372 5.349,37.959 5.623,35.694C5.249,37.453 5.041,39.244 5,41.042L5,41.242C5.019,62.492 22.509,79.967 43.759,79.967C62.545,79.967 78.761,66.309 81.954,47.796C82.019,47.296 82.072,46.801 82.13,46.296C82.928,39.699 82.064,33.005 79.616,26.827Z" style="fill:url(#_Radial4);fill-rule:nonzero;"/>
            <path id="path986" d="M60.782,31.383C60.866,31.442 60.944,31.501 61.023,31.56C60.049,29.834 58.838,28.253 57.423,26.865C45.377,14.817 54.266,0.742 55.765,0.027L55.78,0.005C46.045,5.705 42.742,16.257 42.438,21.535C42.89,21.504 43.338,21.466 43.8,21.466C50.823,21.479 57.32,25.273 60.782,31.383Z" style="fill:url(#_Radial5);fill-rule:nonzero;"/>
            <path id="path988" d="M43.825,33.789C43.761,34.753 40.355,38.078 39.164,38.078C28.143,38.078 26.354,44.745 26.354,44.745C26.842,50.359 30.754,54.983 35.483,57.429C35.699,57.541 35.918,57.642 36.137,57.741C36.516,57.909 36.896,58.064 37.275,58.207C38.898,58.781 40.598,59.109 42.318,59.18C61.635,60.086 65.377,36.08 51.437,29.114C54.725,28.686 58.057,29.495 60.782,31.383C57.32,25.273 50.823,21.479 43.8,21.466C43.34,21.466 42.89,21.504 42.438,21.535C38.551,21.802 34.833,23.235 31.772,25.646C32.363,26.146 33.03,26.814 34.435,28.199C37.065,30.79 43.81,33.474 43.825,33.789Z" style="fill:url(#_Radial6);fill-rule:nonzero;"/>
            <path id="path990" d="M43.825,33.789C43.761,34.753 40.355,38.078 39.164,38.078C28.143,38.078 26.354,44.745 26.354,44.745C26.842,50.359 30.754,54.983 35.483,57.429C35.699,57.541 35.918,57.642 36.137,57.741C36.516,57.909 36.896,58.064 37.275,58.207C38.898,58.781 40.598,59.109 42.318,59.18C61.635,60.086 65.377,36.08 51.437,29.114C54.725,28.686 58.057,29.495 60.782,31.383C57.32,25.273 50.823,21.479 43.8,21.466C43.34,21.466 42.89,21.504 42.438,21.535C38.551,21.802 34.833,23.235 31.772,25.646C32.363,26.146 33.03,26.814 34.435,28.199C37.065,30.79 43.81,33.474 43.825,33.789Z" style="fill:url(#_Radial7);fill-rule:nonzero;"/>
            <path id="path992" d="M29.965,24.357C30.279,24.557 30.538,24.731 30.765,24.888C29.882,21.797 29.844,18.525 30.656,15.415C27.081,17.147 23.904,19.602 21.327,22.625C21.516,22.62 27.138,22.519 29.965,24.357Z" style="fill:url(#_Radial8);fill-rule:nonzero;"/>
            <path id="path994" d="M5.354,42.159C8.345,59.833 24.363,73.327 42.548,73.842C59.378,74.318 70.13,64.548 74.572,55.017C78.332,46.782 78.764,37.404 75.778,28.859L75.778,28.822C75.778,28.793 75.772,28.776 75.778,28.785L75.785,28.85C77.16,37.827 72.594,46.524 65.456,52.405L65.434,52.455C51.526,63.782 38.216,59.289 35.522,57.455C35.334,57.365 35.146,57.271 34.958,57.174C26.849,53.298 23.499,45.91 24.217,39.574C20.292,39.632 16.683,37.362 15.036,33.799C19.359,31.15 24.763,30.933 29.285,33.227C33.873,35.31 39.099,35.515 43.837,33.799C43.822,33.484 37.077,30.799 34.447,28.209C33.042,26.824 32.375,26.157 31.784,25.656C31.465,25.385 31.131,25.132 30.784,24.898C30.554,24.741 30.295,24.571 29.984,24.367C27.157,22.529 21.535,22.63 21.349,22.635L21.331,22.635C19.795,20.688 19.903,14.268 19.991,12.927C19.537,13.11 19.103,13.34 18.697,13.614C17.341,14.582 16.073,15.668 14.909,16.859C13.577,18.2 12.36,19.651 11.271,21.196L11.271,21.202L11.271,21.195C8.779,24.727 7.012,28.719 6.071,32.938C6.052,33.017 4.675,39.037 5.354,42.159Z" style="fill:url(#_Radial9);fill-rule:nonzero;"/>
            <path id="path996" d="M57.425,26.865C58.84,28.255 60.052,29.837 61.025,31.565C61.238,31.726 61.437,31.886 61.606,32.041C70.393,40.141 65.789,51.591 65.446,52.406C72.584,46.525 77.146,37.828 75.775,28.851C71.391,17.921 63.96,13.516 57.891,3.924C57.584,3.439 57.277,2.953 56.978,2.44C56.807,2.147 56.67,1.883 56.551,1.64C56.299,1.152 56.105,0.637 55.973,0.105C55.973,0.054 55.935,0.011 55.885,0.005C55.861,-0.002 55.836,-0.002 55.812,0.005C55.807,0.005 55.799,0.014 55.793,0.016C55.787,0.018 55.774,0.027 55.765,0.031C54.266,0.742 45.377,14.817 57.425,26.865Z" style="fill:url(#_Radial10);fill-rule:nonzero;"/>
            <path id="path998" d="M61.6,32.036C61.431,31.881 61.232,31.721 61.019,31.56C60.94,31.501 60.862,31.442 60.778,31.383C58.053,29.495 54.721,28.686 51.433,29.114C65.373,36.084 61.633,60.086 42.314,59.18C40.594,59.109 38.894,58.781 37.271,58.207C36.892,58.065 36.512,57.91 36.133,57.741C35.914,57.641 35.695,57.541 35.479,57.429L35.506,57.446C38.2,59.285 51.506,63.778 65.418,52.446L65.44,52.396C65.787,51.586 70.391,40.133 61.6,32.036Z" style="fill:url(#_Radial11);fill-rule:nonzero;"/>
            <path id="path1000" d="M26.354,44.745C26.354,44.745 28.143,38.078 39.164,38.078C40.355,38.078 43.764,34.753 43.825,33.789C39.087,35.505 33.861,35.3 29.273,33.217C24.751,30.923 19.347,31.14 15.024,33.789C16.671,37.352 20.28,39.622 24.205,39.564C23.487,45.901 26.837,53.289 34.946,57.164C35.127,57.251 35.297,57.345 35.483,57.428C30.75,54.983 26.842,50.359 26.354,44.745Z" style="fill:url(#_Radial12);fill-rule:nonzero;"/>
            <path id="path1002" d="M79.616,26.827C77.932,22.775 74.516,18.4 71.841,17.017C73.749,20.712 75.073,24.68 75.766,28.781L75.773,28.846C71.391,17.921 63.96,13.516 57.891,3.924C57.584,3.439 57.277,2.953 56.978,2.44C56.807,2.147 56.67,1.883 56.551,1.64C56.299,1.152 56.105,0.637 55.973,0.105C55.973,0.054 55.935,0.011 55.885,0.005C55.861,-0.002 55.836,-0.002 55.812,0.005C55.807,0.005 55.799,0.014 55.793,0.016C55.787,0.018 55.774,0.027 55.765,0.031L55.78,0.005C46.045,5.705 42.742,16.257 42.438,21.535C42.89,21.504 43.338,21.466 43.8,21.466C50.823,21.479 57.32,25.273 60.782,31.383C58.057,29.495 54.725,28.686 51.437,29.114C65.377,36.084 61.637,60.086 42.318,59.18C40.598,59.109 38.898,58.781 37.275,58.207C36.896,58.065 36.516,57.91 36.137,57.741C35.918,57.641 35.699,57.541 35.483,57.429L35.51,57.446C35.322,57.356 35.134,57.262 34.946,57.165C35.127,57.252 35.297,57.346 35.483,57.429C30.75,54.983 26.842,50.359 26.354,44.745C26.354,44.745 28.143,38.078 39.164,38.078C40.355,38.078 43.764,34.753 43.825,33.789C43.81,33.474 37.065,30.789 34.435,28.199C33.03,26.814 32.363,26.147 31.772,25.646C31.453,25.375 31.119,25.122 30.772,24.888C29.889,21.797 29.851,18.525 30.663,15.415C27.088,17.147 23.911,19.602 21.334,22.625L21.316,22.625C19.78,20.678 19.888,14.258 19.976,12.917C19.522,13.1 19.088,13.33 18.682,13.604C17.326,14.572 16.058,15.658 14.894,16.849C13.567,18.194 12.355,19.648 11.271,21.196L11.271,21.202L11.271,21.195C8.779,24.727 7.012,28.719 6.071,32.938L6.019,33.194C5.946,33.535 5.619,35.267 5.572,35.639C5.572,35.667 5.572,35.61 5.572,35.639C5.273,37.427 5.082,39.231 5,41.042L5,41.242C5.019,62.492 22.509,79.967 43.759,79.967C62.545,79.967 78.761,66.309 81.954,47.796C82.019,47.296 82.072,46.801 82.13,46.296C82.928,39.699 82.064,33.005 79.616,26.827ZM75.771,28.818L75.778,28.859L75.771,28.818Z" style="fill:url(#_Linear13);fill-rule:nonzero;"/>
        </g>
    </g>
    <defs>
        <linearGradient id="_Linear2" x1="0" y1="0" x2="1" y2="0" gradientUnits="userSpaceOnUse" gradientTransform="matrix(-64.339,62.075,-62.075,-64.339,74.486,12.3889)"><stop offset="0" style="stop-color:rgb(255,244,79);stop-opacity:1"/><stop offset="0.05" style="stop-color:rgb(255,244,79);stop-opacity:1"/><stop offset="0.11" style="stop-color:rgb(255,232,71);stop-opacity:1"/><stop offset="0.23" style="stop-color:rgb(255,200,48);stop-opacity:1"/><stop offset="0.37" style="stop-color:rgb(255,152,14);stop-opacity:1"/><stop offset="0.4" style="stop-color:rgb(255,139,22);stop-opacity:1"/><stop offset="0.46" style="stop-color:rgb(255,103,42);stop-opacity:1"/><stop offset="0.53" style="stop-color:rgb(255,54,71);stop-opacity:1"/><stop offset="0.71" style="stop-color:rgb(227,21,135);stop-opacity:1"/><stop offset="1" style="stop-color:rgb(227,21,135);stop-opacity:1"/></linearGradient>
        <radialGradient id="_Radial3" cx="0" cy="0" r="1" gradientUnits="userSpaceOnUse" gradientTransform="matrix(80.797,0,0,80.797,71.513,8.8748)"><stop offset="0" style="stop-color:rgb(255,189,79);stop-opacity:1"/><stop offset="0.13" style="stop-color:rgb(255,189,79);stop-opacity:1"/><stop offset="0.19" style="stop-color:rgb(255,172,49);stop-opacity:1"/><stop offset="0.25" style="stop-color:rgb(255,157,23);stop-opacity:1"/><stop offset="0.28" style="stop-color:rgb(255,152,14);stop-opacity:1"/><stop offset="0.4" style="stop-color:rgb(255,86,59);stop-opacity:1"/><stop offset="0.47" style="stop-color:rgb(255,55,80);stop-opacity:1"/><stop offset="0.71" style="stop-color:rgb(245,21,108);stop-opacity:1"/><stop offset="0.78" style="stop-color:rgb(235,8,120);stop-opacity:1"/><stop offset="0.86" style="stop-color:rgb(229,0,128);stop-opacity:1"/><stop offset="1" style="stop-color:rgb(229,0,128);stop-opacity:1"/></radialGradient>
        <radialGradient id="_Radial4" cx="0" cy="0" r="1" gradientUnits="userSpaceOnUse" gradientTransform="matrix(80.797,0,0,80.797,41.9891,41.907)"><stop offset="0" style="stop-color:rgb(150,14,24);stop-opacity:1"/><stop offset="0.3" style="stop-color:rgb(150,14,24);stop-opacity:1"/><stop offset="0.35" style="stop-color:rgb(177,25,39);stop-opacity:0.74"/><stop offset="0.44" style="stop-color:rgb(219,41,61);stop-opacity:0.34"/><stop offset="0.5" style="stop-color:rgb(245,51,75);stop-opacity:0.09"/><stop offset="0.53" style="stop-color:rgb(255,55,80);stop-opacity:0"/><stop offset="1" style="stop-color:rgb(255,55,80);stop-opacity:0"/></radialGradient>
        <radialGradient id="_Radial5" cx="0" cy="0" r="1" gradientUnits="userSpaceOnUse" gradientTransform="matrix(58.534,0,0,58.534,51.7298,-9.4611)"><stop offset="0" style="stop-color:rgb(255,244,79);stop-opacity:1"/><stop offset="0.13" style="stop-color:rgb(255,244,79);stop-opacity:1"/><stop offset="0.25" style="stop-color:rgb(255,220,62);stop-opacity:1"/><stop offset="0.51" style="stop-color:rgb(255,157,18);stop-opacity:1"/><stop offset="0.53" style="stop-color:rgb(255,152,14);stop-opacity:1"/><stop offset="1" style="stop-color:rgb(255,152,14);stop-opacity:1"/></radialGradient>
        <radialGradient id="_Radial6" cx="0" cy="0" r="1" gradientUnits="userSpaceOnUse" gradientTransform="matrix(38.471,0,0,38.471,33.0521,63.0115)"><stop offset="0" style="stop-color:rgb(58,142,230);stop-opacity:1"/><stop offset="0.35" style="stop-color:rgb(58,142,230);stop-opacity:1"/><stop offset="0.47" style="stop-color:rgb(92,121,240);stop-opacity:1"/><stop offset="0.67" style="stop-color:rgb(144,89,255);stop-opacity:1"/><stop offset="1" style="stop-color:rgb(193,57,230);stop-opacity:1"/></radialGradient>
        <radialGradient id="_Radial7" cx="0" cy="0" r="1" gradientUnits="userSpaceOnUse" gradientTransform="matrix(19.8259,-4.79329,5.60917,23.2118,46.4041,35.2854)"><stop offset="0" style="stop-color:rgb(144,89,255);stop-opacity:0"/><stop offset="0.21" style="stop-color:rgb(144,89,255);stop-opacity:0"/><stop offset="0.28" style="stop-color:rgb(140,79,243);stop-opacity:0.06"/><stop offset="0.75" style="stop-color:rgb(119,22,168);stop-opacity:0.45"/><stop offset="0.98" style="stop-color:rgb(110,0,139);stop-opacity:0.6"/><stop offset="1" style="stop-color:rgb(110,0,139);stop-opacity:0.6"/></radialGradient>
        <radialGradient id="_Radial8" cx="0" cy="0" r="1" gradientUnits="userSpaceOnUse" gradientTransform="matrix(27.676,0,0,27.676,40.969,5.5691)"><stop offset="0" style="stop-color:rgb(255,226,38);stop-opacity:1"/><stop offset="0.12" style="stop-color:rgb(255,219,39);stop-opacity:1"/><stop offset="0.29" style="stop-color:rgb(255,200,42);stop-opacity:1"/><stop offset="0.5" style="stop-color:rgb(255,169,48);stop-opacity:1"/><stop offset="0.73" style="stop-color:rgb(255,126,55);stop-opacity:1"/><stop offset="0.79" style="stop-color:rgb(255,113,57);stop-opacity:1"/><stop offset="1" style="stop-color:rgb(255,113,57);stop-opacity:1"/></radialGradient>
        <radialGradient id="_Radial9" cx="0" cy="0" r="1" gradientUnits="userSpaceOnUse" gradientTransform="matrix(118.081,0,0,118.081,62.7229,-11.9855)"><stop offset="0" style="stop-color:rgb(255,244,79);stop-opacity:1"/><stop offset="0.11" style="stop-color:rgb(255,244,79);stop-opacity:1"/><stop offset="0.46" style="stop-color:rgb(255,152,14);stop-opacity:1"/><stop offset="0.62" style="stop-color:rgb(255,86,52);stop-opacity:1"/><stop offset="0.72" style="stop-color:rgb(255,54,71);stop-opacity:1"/><stop offset="0.9" style="stop-color:rgb(227,21,135);stop-opacity:1"/><stop offset="1" style="stop-color:rgb(227,21,135);stop-opacity:1"/></radialGradient>
        <radialGradient id="_Radial10" cx="0" cy="0" r="1" gradientUnits="userSpaceOnUse" gradientTransform="matrix(9.0824,86.0665,-56.4838,5.96843,52.7709,-5.41957)"><stop offset="0" style="stop-color:rgb(255,244,79);stop-opacity:1"/><stop offset="0.06" style="stop-color:rgb(255,232,71);stop-opacity:1"/><stop offset="0.17" style="stop-color:rgb(255,200,48);stop-opacity:1"/><stop offset="0.3" style="stop-color:rgb(255,152,14);stop-opacity:1"/><stop offset="0.36" style="stop-color:rgb(255,139,22);stop-opacity:1"/><stop offset="0.46" style="stop-color:rgb(255,103,42);stop-opacity:1"/><stop offset="0.57" style="stop-color:rgb(255,54,71);stop-opacity:1"/><stop offset="0.74" style="stop-color:rgb(227,21,135);stop-opacity:1"/><stop offset="1" style="stop-color:rgb(227,21,135);stop-opacity:1"/></radialGradient>
        <radialGradient id="_Radial11" cx="0" cy="0" r="1" gradientUnits="userSpaceOnUse" gradientTransform="matrix(73.72,0,0,73.72,40.3172,15.8201)"><stop offset="0" style="stop-color:rgb(255,244,79);stop-opacity:1"/><stop offset="0.14" style="stop-color:rgb(255,244,79);stop-opacity:1"/><stop offset="0.48" style="stop-color:rgb(255,152,14);stop-opacity:1"/><stop offset="0.59" style="stop-color:rgb(255,86,52);stop-opacity:1"/><stop offset="0.66" style="stop-color:rgb(255,54,71);stop-opacity:1"/><stop offset="0.9" style="stop-color:rgb(227,21,135);stop-opacity:1"/><stop offset="1" style="stop-color:rgb(227,21,135);stop-opacity:1"/></radialGradient>
        <radialGradient id="_Radial12" cx="0" cy="0" r="1" gradientUnits="userSpaceOnUse" gradientTransform="matrix(80.686,0,0,80.686,59.7771,20.1346)"><stop offset="0" style="stop-color:rgb(255,244,79);stop-opacity:1"/><stop offset="0.09" style="stop-color:rgb(255,244,79);stop-opacity:1"/><stop offset="0.23" style="stop-color:rgb(255,225,65);stop-opacity:1"/><stop offset="0.51" style="stop-color:rgb(255,175,30);stop-opacity:1"/><stop offset="0.63" style="stop-color:rgb(255,152,14);stop-opacity:1"/><stop offset="1" style="stop-color:rgb(255,152,14);stop-opacity:1"/></radialGradient>
        <linearGradient id="_Linear13" x1="0" y1="0" x2="1" y2="0" gradientUnits="userSpaceOnUse" gradientTransform="matrix(-54.746,54.745,-54.745,-54.746,73.713,12.0569)"><stop offset="0" style="stop-color:rgb(255,244,79);stop-opacity:0.8"/><stop offset="0.17" style="stop-color:rgb(255,244,79);stop-opacity:0.8"/><stop offset="0.27" style="stop-color:rgb(255,244,79);stop-opacity:0.63"/><stop offset="0.49" style="stop-color:rgb(255,244,79);stop-opacity:0.22"/><stop offset="0.6" style="stop-color:rgb(255,244,79);stop-opacity:0"/><stop offset="1" style="stop-color:rgb(255,244,79);stop-opacity:0"/></linearGradient>
    </defs>
</svg>
