<?xml version="1.0" encoding="UTF-8" standalone="no"?>
<!DOCTYPE svg PUBLIC "-//W3C//DTD SVG 1.1//EN" "http://www.w3.org/Graphics/SVG/1.1/DTD/svg11.dtd">
<svg width="100%" height="100%" viewBox="0 0 1024 1024" version="1.1" xmlns="http://www.w3.org/2000/svg" xmlns:xlink="http://www.w3.org/1999/xlink" xml:space="preserve" xmlns:serif="http://www.serif.com/" style="fill-rule:evenodd;clip-rule:evenodd;">
    <path id="Key" d="M140,0L884,0C961.268,0 1024,62.732 1024,140L1024,884C1024,961.268 961.268,1024 884,1024L140,1024C62.732,1024 0,961.268 0,884L0,140C0,62.732 62.732,0 140,0Z" style="fill:rgb(38,38,38);fill-rule:nonzero;"/>
    <clipPath id="_clip1">
        <path id="Key1" serif:id="Key" d="M140,0L884,0C961.268,0 1024,62.732 1024,140L1024,884C1024,961.268 961.268,1024 884,1024L140,1024C62.732,1024 0,961.268 0,884L0,140C0,62.732 62.732,0 140,0Z" clip-rule="nonzero"/>
    </clipPath>
    <g clip-path="url(#_clip1)">
        <path id="Top" d="M206.844,0L817.156,0C880.54,0 932,51.46 932,114.844L932,725.156C932,788.54 880.54,840 817.156,840L206.844,840C143.46,840 92,788.54 92,725.156L92,114.844C92,51.46 143.46,0 206.844,0Z" style="fill:rgb(48,48,48);fill-rule:nonzero;"/>
    </g>
    <g id="Netflix-Logo" serif:id="Netflix Logo">
        <path d="M334,96.895L334,419.777C334,597.362 334.174,742.834 334.387,743.046C334.599,743.259 345.597,742.221 358.826,740.739C372.055,739.258 390.338,737.415 399.455,736.646C413.437,735.465 455.185,732.781 460.019,732.751C461.426,732.742 461.516,725.487 461.719,595.992L461.935,459.242L472.036,487.821C473.597,492.239 474.086,493.618 475.607,497.921L490.786,180.065C487.57,170.972 489.256,175.746 485.57,165.325C473.168,130.26 462.644,100.518 462.183,99.232L461.344,96.895L334,96.895Z" style="fill:rgb(177,6,15);stroke:black;stroke-width:0.47px;"/>
        <path d="M563.092,97.32L562.841,240.13L562.589,382.941L550.839,349.788C550.835,349.777 550.821,349.735 550.817,349.723L535.634,667.658C550.561,709.813 558.559,732.317 558.649,732.407C558.767,732.525 567.274,733.038 577.554,733.548C608.7,735.094 647.296,738.406 676.576,742.044C683.355,742.886 689.189,743.317 689.54,743.003C689.892,742.688 690.083,597.28 689.965,419.875L689.752,97.32L563.092,97.32Z" style="fill:rgb(177,6,15);"/>
        <path d="M334.003,96.895L461.935,459.407L461.935,459.242L472.036,487.821C528.263,646.924 558.472,732.23 558.649,732.407C558.767,732.525 567.274,733.038 577.554,733.548C608.7,735.094 647.296,738.406 676.576,742.044C683.32,742.881 689.124,743.312 689.53,743.006L562.589,382.875L562.589,382.941L550.839,349.788C539.359,317.395 531.693,295.731 485.57,165.325C473.168,130.26 462.644,100.518 462.183,99.232L461.344,96.895L334.003,96.895Z" style="fill:rgb(229,9,20);"/>
    </g>
</svg>
